<?xml version="1.0" standalone="no"?>
<!DOCTYPE svg PUBLIC "-//W3C//DTD SVG 20010904//EN"
 "http://www.w3.org/TR/2001/REC-SVG-20010904/DTD/svg10.dtd">
<svg version="1.0" xmlns="http://www.w3.org/2000/svg"
 width="596.000000pt" height="842.000000pt" viewBox="0 0 596.000000 842.000000"
 preserveAspectRatio="xMidYMid meet">

<g transform="translate(0.000000,842.000000) scale(0.100000,-0.100000)"
fill="#000000" stroke="none">
<path d="M0 4210 l0 -4210 2980 0 2980 0 0 4210 0 4210 -2980 0 -2980 0 0
-4210z m4297 1994 c363 -75 638 -371 681 -734 10 -84 7 -2148 -4 -2420 -2 -69
-5 -135 -5 -148 -1 -17 -6 -21 -18 -17 -12 3 -22 -3 -31 -20 -7 -14 -17 -25
-22 -25 -13 0 -9 22 9 42 15 17 15 18 -1 18 -9 0 -14 -4 -11 -10 8 -13 -8 -13
-21 0 -7 7 -15 -3 -24 -32 -33 -100 -125 -241 -213 -325 -125 -119 -274 -194
-452 -228 -114 -22 -2276 -22 -2410 0 -278 45 -527 235 -646 493 -19 39 -39
72 -46 72 -7 0 -13 9 -13 19 0 11 -4 22 -9 25 -5 3 -7 -16 -5 -42 l4 -47 -18
54 -17 53 -13 -34 c-16 -46 -15 -61 3 -23 l13 30 -1 -30 c-1 -16 2 -41 6 -55
5 -20 4 -19 -8 5 -17 36 -20 21 -4 -24 6 -18 9 -34 6 -37 -8 -8 -47 127 -41
138 3 5 1 15 -5 22 -15 17 -13 -93 -15 1316 -1 1413 -7 1308 90 1506 44 91 69
127 135 198 94 100 199 173 314 217 154 60 92 57 1458 58 1109 1 1267 -1 1334
-15z m583 -3369 c0 -5 -5 -3 -10 5 -5 8 -10 20 -10 25 0 6 5 3 10 -5 5 -8 10
-19 10 -25z m73 13 c-6 -7 -13 -28 -16 -46 -8 -37 -48 -135 -54 -129 -3 4 10
43 37 112 4 11 8 31 8 44 1 13 7 28 14 32 17 11 23 3 11 -13z m-46 -50 c-3 -7
-5 -2 -5 12 0 14 2 19 5 13 2 -7 2 -19 0 -25z m-53 -13 c-9 -14 -18 -25 -20
-25 -2 0 2 11 8 25 6 14 15 25 20 25 5 0 1 -11 -8 -25z m-3781 -111 c6 -32 2
-30 -16 5 -11 22 -12 28 -2 25 7 -3 15 -16 18 -30z m35 -70 c-4 -3 -12 5 -18
18 -12 22 -12 22 6 6 10 -10 15 -20 12 -24z m3743 9 c-12 -20 -14 -14 -5 12 4
9 9 14 11 11 3 -2 0 -13 -6 -23z m-3660 -120 c13 -16 12 -17 -3 -4 -10 7 -18
15 -18 17 0 8 8 3 21 -13z m3549 -27 c0 -2 -8 -10 -17 -17 -16 -13 -17 -12 -4
4 13 16 21 21 21 13z m-40 -41 c0 -2 -10 -9 -22 -15 -22 -11 -22 -10 -4 4 21
17 26 19 26 11z"/>
<path d="M1772 6109 c-74 -12 -234 -74 -296 -114 -91 -58 -219 -179 -232 -217
-3 -10 -10 -18 -15 -18 -5 0 -9 -7 -9 -15 0 -8 -4 -15 -8 -15 -8 0 -62 -93
-62 -106 0 -4 9 1 20 11 25 23 26 15 1 -13 -10 -12 -20 -19 -23 -16 -7 6 -22
-33 -43 -109 -9 -32 -14 -61 -11 -64 3 -4 7 2 7 13 1 12 4 7 9 -11 l8 -30 1
28 1 27 600 0 600 0 1 -32 c1 -28 2 -29 6 -8 2 14 11 30 19 37 10 7 12 13 5
18 -6 3 -11 1 -11 -6 0 -10 -3 -10 -12 -1 -10 10 -10 15 0 21 11 6 11 17 3 46
-31 114 79 285 184 285 65 0 103 -29 151 -115 30 -55 60 -160 42 -148 -8 4 -9
-4 -5 -26 5 -23 2 -37 -9 -49 -15 -15 -16 -14 -10 8 l7 25 -22 -25 -21 -25 27
-3 c16 -2 31 3 38 12 10 13 49 16 254 18 239 3 243 3 237 -17 -4 -15 -3 -17 5
-6 8 12 12 12 25 2 9 -7 24 -11 35 -8 14 3 17 0 14 -14 -3 -11 -1 -19 5 -19
15 0 20 34 7 47 -7 7 -15 10 -17 8 -2 -3 -12 18 -22 46 -15 41 -16 57 -7 94
14 57 84 161 121 180 34 18 93 20 122 4 92 -49 154 -192 127 -291 -8 -30 -7
-44 1 -52 8 -8 14 -7 21 4 8 11 12 12 16 3 7 -18 23 -16 23 2 0 13 73 15 564
17 441 2 562 0 559 -9 -5 -13 24 -49 33 -40 3 3 0 15 -6 27 -6 11 -9 26 -7 33
3 7 8 0 12 -15 4 -16 11 -28 17 -28 10 0 6 19 -24 103 -11 31 -25 57 -30 57
-5 0 -7 4 -3 10 5 8 -52 113 -86 156 -43 54 -152 156 -204 191 -67 45 -170 92
-260 119 -56 17 -134 18 -1240 20 -655 1 -1204 -2 -1233 -7z m3041 -574 c-3
-9 -8 -14 -10 -11 -3 3 -2 9 2 15 9 16 15 13 8 -4z m-3696 -67 c-3 -8 -6 -5
-6 6 -1 11 2 17 5 13 3 -3 4 -12 1 -19z"/>
<path d="M3581 5437 c-13 -21 -12 -21 5 -5 10 10 16 20 13 22 -3 3 -11 -5 -18
-17z"/>
<path d="M3302 5403 c-15 -48 -8 -55 8 -8 7 20 10 38 8 41 -3 2 -10 -13 -16
-33z"/>
<path d="M3581 5403 c-7 -8 -10 -17 -7 -20 9 -9 29 13 25 25 -2 6 -10 3 -18
-5z"/>
<path d="M4855 5410 c3 -5 8 -10 11 -10 2 0 4 5 4 10 0 6 -5 10 -11 10 -5 0
-7 -4 -4 -10z"/>
<path d="M2392 5394 c-7 -8 -8 -14 -3 -14 5 0 12 -10 14 -22 4 -22 4 -22 6 2
2 23 3 24 11 5 6 -14 9 -16 9 -4 1 8 -5 23 -11 31 -11 15 -15 15 -26 2z"/>
<path d="M4831 5394 c0 -11 3 -14 6 -6 3 7 2 16 -1 19 -3 4 -6 -2 -5 -13z"/>
<path d="M1082 5365 c0 -16 2 -22 5 -12 2 9 2 23 0 30 -3 6 -5 -1 -5 -18z"/>
<path d="M1685 5280 c-3 -6 1 -7 9 -4 18 7 21 14 7 14 -6 0 -13 -4 -16 -10z"/>
<path d="M2755 5001 c-245 -45 -439 -144 -587 -299 -83 -87 -139 -174 -163
-254 -24 -81 -18 -85 25 -20 46 68 134 154 218 211 417 282 1091 270 1490 -28
86 -64 130 -110 187 -191 21 -30 40 -57 43 -60 14 -14 -13 83 -38 137 -112
242 -356 421 -675 493 -132 31 -368 36 -500 11z"/>
<path d="M2434 4417 c-195 -76 -242 -330 -86 -467 105 -93 260 -92 366 1 63
56 90 117 90 204 1 111 -56 204 -150 250 -47 23 -175 30 -220 12z m234 -95
c29 -37 0 -92 -48 -92 -35 0 -62 31 -58 66 5 50 74 66 106 26z"/>
<path d="M3305 4406 c-97 -45 -146 -119 -153 -229 -6 -98 11 -149 72 -211 142
-147 385 -98 456 91 26 69 25 128 -1 199 -27 72 -89 135 -154 157 -71 25 -159
22 -220 -7z m233 -78 c17 -14 15 -63 -4 -82 -33 -34 -104 -8 -104 38 1 54 63
79 108 44z"/>
<path d="M3828 3618 c5 -5 16 -8 23 -6 8 3 3 7 -10 11 -17 4 -21 3 -13 -5z"/>
<path d="M3853 3593 c-23 -9 -14 -24 11 -17 14 3 27 1 32 -7 5 -9 2 -10 -10
-6 -15 6 -46 -12 -46 -27 0 -2 -18 -22 -40 -44 -22 -21 -40 -44 -40 -50 0 -14
-42 -57 -64 -65 -9 -4 -16 -16 -16 -27 0 -20 -21 -50 -35 -50 -12 0 -44 -45
-45 -62 0 -22 -16 -32 -24 -16 -4 7 -4 3 -2 -9 5 -28 -2 -29 -21 -5 -14 16
-14 16 -9 -1 3 -10 -5 -40 -19 -67 -28 -55 -30 -64 -14 -54 8 4 8 0 0 -15 -13
-24 -23 -28 -15 -6 11 27 -3 16 -44 -38 -22 -29 -59 -66 -82 -82 -23 -17 -49
-38 -58 -47 -9 -10 -21 -18 -27 -18 -6 0 -11 -8 -11 -19 0 -18 2 -18 23 -2 12
9 25 23 28 33 7 21 32 31 41 16 4 -7 3 -8 -5 -4 -6 4 -14 0 -18 -11 -11 -27
-46 -61 -68 -65 -16 -2 -21 -12 -23 -46 -2 -23 -7 -42 -13 -42 -5 0 -9 -27 -9
-59 0 -38 -4 -61 -12 -64 -10 -4 -10 -6 0 -6 24 -2 12 -30 -15 -34 -16 -3 -5
-2 22 0 28 3 61 4 74 4 12 -1 28 2 35 6 6 4 26 9 44 10 54 3 221 54 324 99
239 103 390 250 438 427 37 136 -48 321 -201 435 -57 42 -63 45 -86 35z m-302
-446 c-10 -9 -11 -8 -5 6 3 10 9 15 12 12 3 -3 0 -11 -7 -18z m-38 -112 c-3
-9 -8 -14 -10 -11 -3 3 -2 9 2 15 9 16 15 13 8 -4z m-53 -29 c0 -2 -7 -9 -15
-16 -13 -11 -14 -10 -9 4 5 14 24 23 24 12z m-160 -190 c0 -3 -4 -8 -10 -11
-5 -3 -10 -1 -10 4 0 6 5 11 10 11 6 0 10 -2 10 -4z"/>
<path d="M2723 3583 c-27 -5 -64 -49 -57 -68 7 -18 54 -34 121 -41 29 -4 58
-13 64 -20 6 -8 20 -14 30 -14 26 0 25 32 -3 81 -31 56 -82 76 -155 62z"/>
<path d="M3140 3583 c-37 -14 -70 -59 -84 -115 -6 -25 -3 -28 18 -28 13 0 29
6 35 14 6 7 38 16 72 19 70 8 95 19 102 47 12 46 -80 86 -143 63z"/>
<path d="M3465 3186 c-27 -14 -45 -25 -40 -25 14 0 112 47 100 48 -5 0 -32
-10 -60 -23z"/>
<path d="M4922 3000 c0 -14 2 -19 5 -12 2 6 2 18 0 25 -3 6 -5 1 -5 -13z"/>
<path d="M4950 3004 c0 -10 5 -26 10 -34 8 -11 9 -7 4 15 -8 37 -14 45 -14 19z"/>
<path d="M1061 2974 c0 -11 3 -14 6 -6 3 7 2 16 -1 19 -3 4 -6 -2 -5 -13z"/>
<path d="M1002 2950 c0 -19 2 -27 5 -17 2 9 2 25 0 35 -3 9 -5 1 -5 -18z"/>
<path d="M1025 2970 c3 -5 8 -10 11 -10 2 0 4 5 4 10 0 6 -5 10 -11 10 -5 0
-7 -4 -4 -10z"/>
<path d="M3222 2854 c-18 -8 -30 -19 -27 -24 3 -6 8 -10 11 -10 3 0 2 5 -1 10
-3 6 0 10 7 10 8 0 23 7 34 15 23 18 19 18 -24 -1z"/>
</g>
</svg>
