<?xml version="1.0" standalone="no"?>
<!DOCTYPE svg PUBLIC "-//W3C//DTD SVG 20010904//EN"
 "http://www.w3.org/TR/2001/REC-SVG-20010904/DTD/svg10.dtd">
<svg version="1.0" xmlns="http://www.w3.org/2000/svg"
 width="596.000000pt" height="842.000000pt" viewBox="0 0 596.000000 842.000000"
 preserveAspectRatio="xMidYMid meet">

<g transform="translate(0.000000,842.000000) scale(0.100000,-0.100000)"
fill="#000000" stroke="none">
<path d="M1745 6104 c-256 -56 -472 -225 -590 -462 -18 -37 -40 -91 -48 -119
l-16 -53 635 0 635 0 -12 22 c-6 12 -12 49 -12 83 -1 146 123 277 223 235 64
-27 140 -148 140 -226 0 -27 -8 -51 -25 -75 l-26 -34 322 -3 c177 -1 324 0
327 2 2 3 -7 19 -22 36 -46 55 -31 137 43 238 65 88 145 92 223 12 71 -73 93
-168 62 -267 l-6 -23 632 0 632 0 -7 28 c-12 50 -57 155 -93 217 -43 75 -207
238 -284 284 -65 38 -147 72 -234 98 -55 17 -141 18 -1244 20 -1022 1 -1195 0
-1255 -13z"/>
<path d="M2850 5014 c-14 -2 -59 -9 -100 -15 -185 -27 -382 -117 -533 -243
-98 -82 -206 -252 -223 -351 l-6 -40 33 50 c277 411 1017 555 1544 300 153
-74 308 -204 370 -308 15 -26 30 -46 32 -43 11 10 -38 144 -74 204 -125 210
-356 361 -654 427 -71 16 -335 29 -389 19z"/>
<path d="M2415 4406 c-56 -26 -119 -90 -143 -145 -23 -55 -20 -155 8 -219 71
-164 291 -213 428 -96 122 104 131 289 20 404 -78 79 -212 104 -313 56z m228
-67 c27 -15 37 -28 37 -53 0 -29 -29 -56 -60 -56 -59 0 -82 81 -30 107 31 15
27 15 53 2z"/>
<path d="M3310 4409 c-103 -46 -160 -137 -160 -255 0 -59 5 -81 28 -125 52
-100 162 -158 277 -146 70 7 124 36 174 93 127 145 69 374 -112 441 -53 19
-156 15 -207 -8z m228 -81 c17 -14 15 -63 -4 -82 -33 -34 -104 -8 -104 38 1
54 63 79 108 44z"/>
<path d="M3870 3584 c0 -8 -4 -12 -10 -9 -5 3 -10 -2 -10 -12 0 -10 -25 -44
-55 -76 -30 -32 -55 -64 -55 -70 0 -7 -9 -18 -19 -24 -11 -7 -29 -30 -42 -53
-12 -22 -26 -40 -31 -40 -4 0 -8 -6 -8 -13 0 -7 -13 -23 -29 -35 -16 -11 -53
-61 -82 -109 -31 -51 -85 -120 -129 -164 -129 -129 -157 -185 -166 -327 l-5
-84 43 7 c328 49 592 166 744 326 163 174 175 371 33 555 -39 51 -148 144
-168 144 -6 0 -11 -7 -11 -16z"/>
<path d="M2715 3581 c-30 -13 -56 -46 -50 -63 9 -22 45 -36 114 -44 33 -3 66
-13 72 -20 6 -8 20 -14 30 -14 46 0 -1 113 -56 136 -38 15 -79 17 -110 5z"/>
<path d="M3140 3583 c-38 -15 -70 -59 -84 -115 -6 -25 -4 -28 19 -28 14 0 28
7 31 15 4 8 19 15 35 15 55 0 129 21 139 40 17 31 -26 71 -80 76 -25 2 -52 1
-60 -3z"/>
<path d="M997 2828 c26 -91 59 -164 107 -238 114 -176 268 -290 483 -357 l88
-28 1295 0 1295 0 78 23 c217 62 381 180 495 355 53 81 106 198 117 260 l7 37
-53 0 -54 -1 -52 -107 c-106 -222 -312 -388 -563 -454 l-85 -23 -1180 0 -1180
0 -85 23 c-250 68 -447 230 -562 460 l-52 102 -57 0 -58 0 16 -52z"/>
</g>
</svg>
